# xmcd
#
# Track frame offsets: 
#        150
#        19167
#        35227
#        68187
#
# Disc length: 1198 seconds
#
# Revision: 1
# Processed by: cddbd v1.5.2PL0 Copyright (c) Steve Scherf et al.
# Submitted via: ExactAudioCopy v0.99pb5
#
DISCID=3304ac04
DTITLE=Macy Gray - Do Something
DYEAR=1999
DGENRE=Pop
TTITLE0=Do Something (Edit)
TTITLE1=Do Something (Black Apple Mix - Edit)
TTITLE2=Do Something (Black Apple Mix)
TTITLE3=Do Something (Jay's Subliminal Funk)
EXTD=
EXTT0=
EXTT1=
EXTT2=
EXTT3=
PLAYORDER=
